<svg width="112" height="100" viewBox="0 0 112 100" fill="none" xmlns="http://www.w3.org/2000/svg">
<path d="M85.0101 93.5673C85.7944 94.372 86.7368 95.0062 87.7792 95.4282C89.2081 96.3191 90.8594 96.7825 92.5402 96.7642C94.9213 96.7828 97.1807 95.7073 98.6767 93.8431L85.0101 93.5673ZM85.0101 93.5673C85.0184 93.5587 85.0266 93.55 85.0348 93.5414L84.6715 93.1978L84.2927 93.5242C84.2998 93.5324 84.3069 93.5406 84.314 93.5488C83.042 94.7078 81.3708 95.3367 79.6428 95.2929C77.9011 95.3153 76.1885 94.8423 74.7021 93.9283C73.33 93.3705 72.1273 92.4602 71.2144 91.2881C71.1123 91.3662 71.0088 91.4429 70.9028 91.5184C67.4526 93.9576 61.6936 94.3797 55.495 92.6502L85.0101 93.5673ZM17.4015 97.6879C19.3122 97.2887 21.1655 96.6491 22.9175 95.7841C24.742 96.3082 26.6533 96.4544 28.5356 96.214C31.6966 95.7768 34.6529 94.3901 37.0183 92.2352C37.5568 92.6052 38.128 92.9247 38.7247 93.1894C40.3396 94.187 42.1933 94.725 44.0881 94.7459C47.2154 94.7778 50.2135 93.4928 52.3576 91.2016C52.6019 91.335 52.854 91.4573 53.1138 91.5685L17.4015 97.6879ZM17.4015 97.6879L16.9878 97.777L17.4015 97.6879ZM10.8183 59.9198C8.68363 60.1271 6.67788 61.0699 5.14649 62.5988L10.8183 59.9198ZM10.8183 59.9198C10.8951 60.0137 10.9724 60.1073 11.05 60.2006L11.4342 59.8806L11.4191 59.3808C11.2924 59.3846 11.166 59.3909 11.04 59.3997C9.48283 57.4695 8.10779 55.397 6.93302 53.2089C1.99102 44.063 1.64072 32.2241 5.99713 21.5386C10.0808 11.5197 17.5346 4.21515 26.4491 1.49692C39.2651 -2.41293 47.6573 2.0674 52.4688 6.56198C52.8667 6.89826 53.2473 7.23963 53.6101 7.58337C53.598 7.59921 53.5859 7.61506 53.5739 7.63094L53.9722 7.93311L54.3229 7.57675C54.3092 7.56323 54.2954 7.54971 54.2817 7.5362C58.0374 2.84791 63.7916 0.223061 69.7898 0.487429C77.1524 0.502927 84.2407 3.30021 89.6511 8.32533C93.3796 11.4697 96.2456 15.5226 97.9762 20.0978C101.142 28.7986 102.836 46.0197 91.2578 59.339L10.8183 59.9198ZM103.788 63.9429L103.796 63.947L103.804 63.9508C107.645 65.8141 109.277 68.1374 109.919 70.1494C110.566 72.1804 110.227 73.967 109.999 74.7723L109.998 74.7771C109.438 76.8321 108.018 78.5387 106.109 79.4538C104.626 80.1225 103.005 80.4203 101.383 80.322L100.821 80.2879L100.853 80.85C100.983 83.0809 100.956 85.5088 100.584 87.7581C100.211 90.013 99.4985 92.046 98.2894 93.5268L98.2868 93.5301C96.886 95.2755 94.7715 96.2816 92.5441 96.2642L92.5348 96.2643C90.9495 96.2815 89.3919 95.8444 88.0437 95.0039L88.007 94.981L87.9668 94.9648C86.8436 94.51 85.8438 93.7926 85.0503 92.8715L84.6888 92.4518L84.3082 92.8543C83.0985 94.1337 81.4082 94.8375 79.6555 94.7931L79.646 94.7928L79.6364 94.793C77.9895 94.8141 76.3699 94.3669 74.964 93.5024L74.9287 93.4807L74.8904 93.4651C73.5997 92.9405 72.4681 92.084 71.6088 90.9809L71.3044 90.59L70.9107 90.8909C70.8127 90.9658 70.7143 91.0388 70.614 91.1103C67.3398 93.4248 61.7607 93.8791 55.6305 92.1689C54.836 91.9451 54.0796 91.6015 53.387 91.1497L53.3506 91.1259L53.3106 91.1088C53.0651 91.0037 52.8273 90.8884 52.5971 90.7627L52.2572 90.5772L51.9925 90.86C49.9438 93.0492 47.0798 94.2764 44.0932 94.246C42.2896 94.226 40.525 93.7139 38.9874 92.764L38.9585 92.7462L38.9275 92.7324C38.359 92.4801 37.8146 92.1757 37.3014 91.8231L36.9747 91.5986L36.6816 91.8656C34.3913 93.9521 31.5294 95.2946 28.4697 95.7184C26.6557 95.9497 24.8139 95.8086 23.0555 95.3035L22.8696 95.2501L22.6961 95.3357C20.9819 96.1821 19.1687 96.8079 17.2992 97.1985L17.2962 97.1991L16.8825 97.2883L16.8825 97.2881L16.8689 97.2914C15.5175 97.6223 14.1341 97.8023 12.7436 97.828C10.8605 97.863 9.00556 97.3638 7.3909 96.3872L7.36176 96.3696L7.3305 96.3561C2.81319 94.4036 0.430918 89.3 0.501518 80.8064L0.00153563 80.8023L0.501519 80.8064C0.574973 71.8874 2.25864 66.1123 5.49551 62.9568L5.49554 62.9568L5.49975 62.9526C7.08793 61.367 9.2145 60.448 11.4494 60.3804L12.4753 60.3493L11.8184 59.5606C10.1198 57.5211 8.6306 55.3138 7.37354 52.9724L7.37291 52.9712C2.51038 43.9723 2.15314 32.2917 6.46013 21.7273L6.46015 21.7273C10.4973 11.8226 17.8484 4.6422 26.5949 1.97518L26.595 1.97516C39.2096 -1.87326 47.4215 2.53135 52.1275 6.92736L52.1366 6.93584L52.1461 6.94386C52.6688 7.38567 53.1611 7.83635 53.6215 8.28948L54.0269 8.68842L54.3706 8.23528C58.0164 3.42887 63.7672 0.722469 69.7678 0.986944L69.7783 0.987406L69.7888 0.987428C77.0251 1.00266 83.9924 3.75194 89.3108 8.69169L89.3196 8.69984L89.3288 8.70756C92.9911 11.7962 95.8069 15.7773 97.5074 20.2719C100.673 28.9751 102.331 46.2668 90.4877 59.4554L89.855 60.16L90.7937 60.2851C91.637 60.3975 92.5204 60.5321 93.4485 60.6788L93.4563 60.6801L93.4641 60.6811C97.0722 61.1353 100.57 62.2402 103.788 63.9429Z" fill="white" stroke="#FF0A58"/>
<path d="M93.6186 21.6895C89.9407 12.1907 80.8262 5.95521 70.6961 6.00758C58.0301 5.80366 55.5151 18.1484 55.5151 18.1484C55.5151 18.1484 48.6425 0.757567 28.7722 6.81698C12.1837 11.8756 3.23584 35.6515 11.9826 51.8392C20.7293 68.027 36.5136 69.8483 53.0017 79.1561C56.5762 81.3904 60.0018 83.8576 63.2564 86.5418C63.2564 86.5418 64.5634 76.9303 84.4697 59.5514C98.785 47.0538 96.3418 29.1732 93.6186 21.6895Z" fill="#B20A40" stroke="#B20A40" stroke-linecap="round" stroke-linejoin="round"/>
<path d="M54.5287 17.2783C54.5287 17.2783 47.6561 -0.112554 27.7859 5.94686C11.1973 11.0055 2.24951 34.7813 10.9962 50.9691C19.743 67.1569 35.5272 68.9781 52.0153 78.2861C55.5899 80.5204 59.0154 82.9875 62.2701 85.6717C62.2701 85.6717 63.577 76.0602 83.4834 58.6814C97.7986 46.1837 95.3555 28.3031 92.6322 20.8194C88.9544 11.3206 79.8399 5.0851 69.7098 5.13748C57.0437 4.93353 54.5287 17.2783 54.5287 17.2783Z" fill="#FF0A58" stroke="#B20A40" stroke-linecap="round" stroke-linejoin="round"/>
<path d="M45.3798 24.4297C45.3798 24.4297 44.5845 30.5576 48.1033 29.8494C51.6221 29.1411 51.148 24.4297 51.148 24.4297" stroke="#4D041B" stroke-linecap="round" stroke-linejoin="round"/>
<path d="M56.5391 23.8254C56.5391 23.8254 56.5391 29.3987 59.9573 28.7859C63.3756 28.1731 62.7724 22.9121 62.7724 22.9121" stroke="#4D041B" stroke-linecap="round" stroke-linejoin="round"/>
<path d="M37.2285 31.3413C37.2285 31.3413 46.0016 31.3413 47.016 39.733C47.7825 46.0736 43.4883 51.9244 43.4883 51.9244" stroke="#4D041B" stroke-linecap="round" stroke-linejoin="round"/>
<path d="M68.3148 26.3066C64.9207 29.1511 63.4838 33.7244 64.636 38.0154C66.304 44.9974 74.0454 44.9974 74.0454 44.9974" stroke="#4D041B" stroke-linecap="round" stroke-linejoin="round"/>
<path d="M47.0166 39.7329C47.0166 39.7329 50.1054 47.0906 57.0424 45.9104C63.9795 44.7302 64.5148 37.4468 64.5148 37.4468" stroke="#4D041B" stroke-linecap="round" stroke-linejoin="round"/>
<path d="M29.8143 52.318C33.8318 52.318 37.0886 49.0405 37.0886 44.9976C37.0886 40.9547 33.8318 37.6772 29.8143 37.6772C25.7968 37.6772 22.54 40.9547 22.54 44.9976C22.54 49.0405 25.7968 52.318 29.8143 52.318Z" fill="#FF0A58"/>
<path d="M79.3973 40.5133C83.4148 40.5133 86.6716 37.2358 86.6716 33.1929C86.6716 29.15 83.4148 25.8726 79.3973 25.8726C75.3799 25.8726 72.123 29.15 72.123 33.1929C72.123 37.2358 75.3799 40.5133 79.3973 40.5133Z" fill="#FF0A58"/>
<path d="M24.3446 11.2227C11.8497 18.5829 9.14077 36.1388 11.596 42.9097" stroke="white" stroke-linecap="round" stroke-linejoin="round"/>
<path d="M34.7188 8.00488C32.8282 8.15991 30.9602 8.52343 29.1484 9.08891" stroke="white" stroke-linecap="round" stroke-linejoin="round"/>
<path d="M79.0065 55.0762C78.1512 55.2785 77.6208 56.1402 77.8219 57.0009C77.8649 57.1851 77.94 57.3602 78.0437 57.5179" stroke="white" stroke-linecap="round" stroke-linejoin="round"/>
<path d="M25.8957 64.1407C30.6016 63.4776 38.1665 67.521 38.4333 76.8117C38.7001 86.1023 33.0719 90.8931 27.9199 91.5804C23.2715 92.2005 16.7601 89.1243 16.1513 79.2488C15.6525 71.1581 18.9838 65.1146 25.8957 64.1407Z" fill="#B20A40" stroke="#B20A40" stroke-linecap="round" stroke-linejoin="round"/>
<path d="M27.208 71.246C27.8625 70.8378 28.9677 72.5514 29.1019 76.8546C29.236 81.1578 28.4949 83.5001 27.778 83.929C27.1312 84.316 26.1841 83.0285 25.9958 78.4613C25.8415 74.7196 26.2468 71.8455 27.208 71.246Z" fill="#B20A40" stroke="#B20A40" stroke-linecap="round" stroke-linejoin="round"/>
<path d="M16.2734 85.3548C22.716 80.7498 24.7632 86.9302 23.7998 89.1721C23.1002 90.8002 19.6452 92.4441 16.4541 93.1106C13.2629 93.7771 5.73648 96.1402 5.8569 81.4769C5.97732 66.8135 10.6738 65.1228 12.9618 65.1775C15.7071 65.2432 19.284 68.0254 17.8389 76.2659C16.741 82.5268 16.2734 85.3548 16.2734 85.3548Z" fill="#B20A40" stroke="#B20A40" stroke-linecap="round" stroke-linejoin="round"/>
<path d="M40.0484 63.3944C37.2326 63.9472 35.5096 66.4324 35.4215 69.6651C35.3262 73.1619 35.4588 89.9249 44.158 90.0717C48.6858 90.148 51.9708 85.1289 53.6698 79.323C55.513 73.024 56.4782 63.5507 52.9121 63.1933C47.1836 62.6193 45.1661 79.1428 45.1661 79.1428C45.1661 79.1428 45.5344 62.3174 40.0484 63.3944Z" fill="#B20A40" stroke="#B20A40" stroke-linecap="round" stroke-linejoin="round"/>
<path d="M71.0553 65.7577C69.8837 63.3221 59.1608 62.2316 55.9702 68.1099C53.8884 71.9456 49.9582 86.2539 56.7274 88.1453C63.4966 90.0367 69.5 88.866 69.7819 85.0832C70.0639 81.3003 61.2302 80.6425 61.2302 80.6425C61.2302 80.6425 68.849 80.6569 69.406 76.7544C69.9631 72.852 61.9225 73.7369 61.9225 73.7369C61.9225 73.7369 74.1988 72.2926 71.0553 65.7577Z" fill="#B20A40" stroke="#B20A40" stroke-linecap="round" stroke-linejoin="round"/>
<path d="M81.1396 63.7572C85.4621 64.0206 86.0407 68.5376 84.9097 76.8339C83.9087 84.1765 82.8045 90.6157 79.6315 90.6186C74.8057 90.623 73.8146 85.2714 74.4987 76.3242C75.1828 67.3771 77.4877 63.5346 81.1396 63.7572Z" fill="#B20A40" stroke="#B20A40" stroke-linecap="round" stroke-linejoin="round"/>
<path d="M94.0293 65.4263C103.693 66.9556 106.94 70.3589 106.018 73.6217C104.634 78.5248 95.9192 74.8014 95.9192 74.8014C95.9192 74.8014 99.3199 92.0902 92.5336 92.0902C84.0728 92.0902 89.2589 73.2717 89.2589 73.2717C89.2589 73.2717 81.5595 72.1632 82.6341 68.131C83.7087 64.0988 87.3185 64.3643 94.0293 65.4263Z" fill="#B20A40" stroke="#B20A40" stroke-linecap="round" stroke-linejoin="round"/>
<path d="M24.6672 63.4927C29.373 62.8297 36.938 66.873 37.2048 76.1637C37.4716 85.4544 31.8433 90.2452 26.6914 90.9324C22.0429 91.5525 15.5316 88.4764 14.9228 78.6008C14.424 70.5102 17.7553 64.4667 24.6672 63.4927Z" fill="#FF94B6" stroke="#B20A40" stroke-linecap="round" stroke-linejoin="round"/>
<path d="M25.9785 70.5985C26.633 70.1904 27.7382 71.9039 27.8724 76.2071C28.0065 80.5104 27.2654 82.8527 26.5485 83.2816C25.9017 83.6686 24.9546 82.3811 24.7663 77.814C24.612 74.0722 25.0174 71.198 25.9785 70.5985Z" fill="#B20A40" stroke="#B20A40" stroke-linecap="round" stroke-linejoin="round"/>
<path d="M15.0439 84.7073C21.4865 80.1023 23.5336 86.2827 22.5703 88.5246C21.8706 90.1528 18.4157 91.7966 15.2245 92.4632C12.0333 93.1297 4.50695 95.4928 4.62741 80.8294C4.74787 66.1661 9.44423 64.4753 11.7323 64.5301C14.4775 64.5957 18.0544 67.3779 16.6094 75.6185C15.5114 81.8793 15.0439 84.7073 15.0439 84.7073Z" fill="#FF94B6" stroke="#B20A40" stroke-linecap="round" stroke-linejoin="round"/>
<path d="M38.8199 62.7469C36.0041 63.2997 34.2811 65.785 34.193 69.0176C34.0977 72.5144 34.2303 89.2775 42.9294 89.4242C47.4573 89.5006 50.7423 84.4814 52.4413 78.6756C54.2845 72.3766 55.2497 62.9032 51.6836 62.5459C45.9551 61.9719 43.9376 78.4953 43.9376 78.4953C43.9376 78.4953 44.3058 61.6699 38.8199 62.7469Z" fill="#FF94B6" stroke="#B20A40" stroke-linecap="round" stroke-linejoin="round"/>
<path d="M69.8259 65.1098C68.6543 62.6742 57.9313 61.5837 54.7407 67.462C52.6589 71.2976 48.7287 85.606 55.4979 87.4974C62.2672 89.3888 68.2705 88.2181 68.5525 84.4352C68.8344 80.6524 60.0008 79.9946 60.0008 79.9946C60.0008 79.9946 67.6196 80.0089 68.1766 76.1065C68.7336 72.2041 60.6931 73.0889 60.6931 73.0889C60.6931 73.0889 72.9693 71.6446 69.8259 65.1098Z" fill="#FF94B6" stroke="#B20A40" stroke-linecap="round" stroke-linejoin="round"/>
<path d="M79.9111 63.1092C84.2336 63.3726 84.8122 67.8897 83.6812 76.1859C82.6802 83.5286 81.5759 89.9678 78.403 89.9706C73.5772 89.975 72.5861 84.6234 73.2702 75.6762C73.9542 66.7291 76.2592 62.8867 79.9111 63.1092Z" fill="#FF94B6" stroke="#B20A40" stroke-linecap="round" stroke-linejoin="round"/>
<path d="M92.7998 64.7784C102.464 66.3077 105.71 69.7109 104.789 72.9738C103.404 77.8768 94.6897 74.1535 94.6897 74.1535C94.6897 74.1535 98.0904 91.4423 91.3041 91.4423C82.8433 91.4423 88.0294 72.6237 88.0294 72.6237C88.0294 72.6237 80.3301 71.5153 81.4046 67.4831C82.4792 63.4509 86.089 63.7164 92.7998 64.7784Z" fill="#FF94B6" stroke="#B20A40" stroke-linecap="round" stroke-linejoin="round"/>
<path d="M11.9478 67.0146C10.5403 67.0653 7.63966 68.4046 7.12207 80.596" stroke="#B20A40" stroke-linecap="round" stroke-linejoin="round"/>
<path d="M7.12216 83.3462C7.10173 84.9532 7.37434 86.5504 7.92645 88.0585" stroke="#B20A40" stroke-linecap="round" stroke-linejoin="round"/>
<path d="M19.4883 69.3918C20.3428 68.0766 22.5398 65.9278 25.1184 66.1543" stroke="#B20A40" stroke-linecap="round" stroke-linejoin="round"/>
<path d="M32.8093 84.1128C32.2118 85.116 31.339 85.924 30.2959 86.4398" stroke="#B20A40" stroke-linecap="round" stroke-linejoin="round"/>
<path d="M38.971 65.5508C37.904 65.9683 36.3731 67.2288 36.7442 70.9636" stroke="#B20A40" stroke-linecap="round" stroke-linejoin="round"/>
<path d="M63.2311 65.9277C60.1557 65.9277 57.048 66.1009 55.4395 72.7407" stroke="#B20A40" stroke-linecap="round" stroke-linejoin="round"/>
<path d="M76.3803 70.4722C75.5115 74.7045 75.2784 79.0441 75.6887 83.3461C76.0155 85.7743 77.0459 86.9601 77.7497 87.0613" stroke="#B20A40" stroke-linecap="round" stroke-linejoin="round"/>
<path d="M89.0089 80.3945C88.9177 81.0939 88.8395 81.8002 88.7875 82.4686C88.5613 85.3774 88.859 87.9067 90.1911 88.5644" stroke="#B20A40" stroke-linecap="round" stroke-linejoin="round"/>
<path d="M89.8898 75.1841C89.8898 75.1841 89.6625 76.2716 89.4082 77.7651" stroke="#B20A40" stroke-linecap="round" stroke-linejoin="round"/>
<path d="M87.8039 66.5805C86.698 66.3782 85.0391 66.1252 84.1846 67.2887" stroke="#B20A40" stroke-linecap="round" stroke-linejoin="round"/>
</svg>
